<svg id="svg2516" xmlns="http://www.w3.org/2000/svg" viewBox="0 0 1023.9 219"><style>.st0{fill:#000}</style><path class="st0" d="M578.6 43.8c-12.4 0-23.9 3.9-33.3 10.5-9.4-6.6-20.9-10.5-33.3-10.5-32.2 0-58.2 26.1-58.2 58.7v53.7c0 6.6 6.3 12.9 12.9 12.9h23.9c6.6 0 12.9-6.3 12.9-12.9V102c0-4.7 3.8-8.5 8.5-8.5s8.5 3.8 8.5 9v53.7c0 6.6 6.3 12.9 12.9 12.9h23.9c6.6 0 12.9-6.3 12.9-12.9V102c0-4.7 3.8-8.5 8.5-8.5s8.5 3.8 8.5 8.5v54.2c0 6.6 6.3 12.9 12.9 12.9H624c6.6 0 12.9-6.3 12.9-12.9V102c0-32.1-26.1-58.2-58.3-58.2zM434.7 49.8h-23.9c-7.1 0-12.9 5.8-12.9 12.9v55.5c0 4.7-3.8 8.5-8.5 8.5s-8.5-3.8-8.5-8.5V62.9c0-7.1-5.8-13.2-12.9-13.2h-23.9c-7.1 0-12.9 4.8-12.9 11.9v63.7c0 18.9 14.2 39.4 39.7 39.4h.7c14 0 19.3-4.7 24.8-9.1 2-2.5 3-2 3-.5 0 14.3-15.2 26.7-27.5 26.6l-17.3-.2c-5.1-.1-8.1 6-8.1 9.3 0 5.1.1 7.4 0 13-.2 12.6 11.2 15.1 26 15.1h17.4c18.9 0 57.7-22.8 57.7-61.7V62.6c0-7-5.8-12.8-12.9-12.8zM708.3 43.8c-36.3 0-65.7 29.4-65.7 65.7 0 36.3 29.4 65.7 65.7 65.7 36.3 0 65.7-29.4 65.7-65.7 0-36.3-29.4-65.7-65.7-65.7zm0 82.8c-8.8 0-15.9-7.1-15.9-15.9s7.1-15.9 15.9-15.9 15.9 7.1 15.9 15.9-7.1 15.9-15.9 15.9zM258.9 43.8c-36.3 0-65.7 29.4-65.7 65.7 0 36.3 29.9 65.7 61.7 65.7 0 0 11.9 0 11.9-11.9v-26.9c0-7.3-6.9-10.9-11.9-11.7-7.7-1.2-11.9-6.4-11.9-15.2 0-8.8 7.1-15.9 15.9-15.9s15.9 7.1 15.9 15.9v46.6c0 7.1 5.8 12.9 12.9 12.9h23.9c7.1 0 12.9-5.8 12.9-12.9v-46.6c.1-36.3-29.3-65.7-65.6-65.7zM65.7 43.8C29.4 43.8 0 73.2 0 109.5V206c0 7.1 5.8 12.9 12.9 12.9h23.9c7.1 0 12.9-5.8 12.9-12.9v-96.6c0-8.8 7.1-15.9 15.9-15.9s15.9 7.1 15.9 15.9-4.3 14-11.9 15.2c-5 .8-11.9 4.4-11.9 11.7v26.9c0 11.9 11.9 11.9 11.9 11.9 31.9 0 61.7-29.4 61.7-65.7.1-36.2-29.3-65.6-65.6-65.6zM849.7 44.2s-11.9 0-11.9 11.9V83c0 7.3 6.9 10.9 11.9 11.7 7.7 1.2 11.9 6.4 11.9 15.2 0 8.8-7.1 15.9-15.9 15.9s-15.9-7.1-15.9-15.9V13.3c0-7.1-5.8-12.9-12.9-12.9H793c-7.1 0-12.9 5.8-12.9 12.9v96.5c0 36.3 29.4 65.7 65.7 65.7 36.3 0 65.7-29.4 65.7-65.7-.1-36.2-29.9-65.6-61.8-65.6zM174.2 0h-23.9c-7.1 0-12.9 5.8-12.9 12.9v143.3c0 7.1 5.8 12.9 12.9 12.9h23.9c7.1 0 12.9-5.8 12.9-12.9V12.9c0-7.1-5.7-12.9-12.9-12.9zM1011 .5h-23.9c-7.1 0-12.9 5.8-12.9 12.9v143.3c0 7.1 5.8 12.9 12.9 12.9h23.9c7.1 0 12.9-5.8 12.9-12.9V13.5c0-7.2-5.8-13-12.9-13zm-11.9 167.3c-12.6 0-22.8-10.2-22.8-22.8 0-12.6 10.2-22.8 22.8-22.8 12.6 0 22.8 10.2 22.8 22.8 0 12.6-10.2 22.8-22.8 22.8zM948.2 38.2c12.8-8.6 16-25.1 7.4-37.8h-66.4l20.2 30.3c8.7 12.8 26 16.1 38.8 7.5z"/><path class="st0" d="M999.1 124.4c-11.3 0-20.4 9.2-20.4 20.5s9.1 20.5 20.4 20.5c11.3 0 20.4-9.2 20.4-20.5s-9.1-20.5-20.4-20.5zm5.9 32.8l-6.7-10.7h-4v10.9h-3.7v-24.9h10.7c3.9 0 7.3 2.8 7.3 6.7 0 3.9-2.2 6.9-6.2 6.9l7.1 11.1h-4.5zM954.1 50.3h-23.9c-7.1 0-12.9 5.8-12.9 12.9v93.6c0 7.1 5.8 12.9 12.9 12.9h23.9c7.1 0 12.9-5.8 12.9-12.9V63.3c0-7.2-5.8-13-12.9-13z"/><path class="st0" d="M1005.2 139.6c0-1.9-1.6-3.8-3.6-3.8h-7.3v7.4h7.2c2 0 3.7-1.7 3.7-3.6z"/></svg>